<?xml version="1.0" encoding="UTF-8"?>
<!-- Generator: Adobe Illustrator 18.1.1, SVG Export Plug-In . SVG Version: 6.00 Build 0)  -->
<svg version="1.1" id="Layer_1" xmlns="http://www.w3.org/2000/svg" xmlns:xlink="http://www.w3.org/1999/xlink" x="0px" y="0px" viewBox="0 0 29.6 17.9" enable-background="new 0 0 29.6 17.9" xml:space="preserve">
<g>
	<g>
		<path d="M28.6,2H1C0.4,2,0,1.6,0,1c0-0.6,0.4-1,1-1h27.6c0.6,0,1,0.4,1,1C29.6,1.6,29.1,2,28.6,2z"/>
	</g>
	<g>
		<path d="M28.6,9.9H1c-0.6,0-1-0.4-1-1c0-0.6,0.4-1,1-1h27.6c0.6,0,1,0.4,1,1C29.6,9.5,29.1,9.9,28.6,9.9z"/>
	</g>
	<g>
		<path d="M28.6,17.9H1c-0.6,0-1-0.4-1-1c0-0.6,0.4-1,1-1h27.6c0.6,0,1,0.4,1,1C29.6,17.4,29.1,17.9,28.6,17.9z"/>
	</g>
</g>
</svg>